<svg xmlns="http://www.w3.org/2000/svg" xmlns:xlink="http://www.w3.org/1999/xlink" viewBox="0 0 350 330">
  <g id="dirigible">
    <g id="dirigibleGondola">
      <animateTransform 
        attributeName="transform" 
        type="skewY" 
        values="0;1;0;-1;0" 
        dur="2s" 
        repeatCount="indefinite" 
      />
      <path d="M175.44,249.28h48.36a13.27,13.27,0,0,0,13-10.65l3.74-18.32H172.36v25.89A3.09,3.09,0,0,0,175.44,249.28Z" fill="none" stroke="#fff" stroke-linecap="round" stroke-linejoin="round" stroke-width="2"/>
      <path d="M235.79,241.69h-9.22a8.31,8.31,0,0,1-8.28-8.31V220.31" fill="none" stroke="#fff" stroke-linecap="round" stroke-miterlimit="10" stroke-width="2"/>
      <path d="M204.25,231.88h-2.05a3.45,3.45,0,0,0-3.43,3.45v2.92a3.45,3.45,0,0,0,3.43,3.45h2.05a3.45,3.45,0,0,0,3.43-3.45v-2.92A3.44,3.44,0,0,0,204.25,231.88Z" fill="none" stroke="#fff" stroke-linecap="round" stroke-linejoin="round" stroke-width="2"/>
      <path d="M185.64,231.88h-2.05a3.45,3.45,0,0,0-3.43,3.45v2.92a3.45,3.45,0,0,0,3.43,3.45h2.05a3.45,3.45,0,0,0,3.43-3.45v-2.92A3.45,3.45,0,0,0,185.64,231.88Z" fill="none" stroke="#fff" stroke-linecap="round" stroke-linejoin="round" stroke-width="2"/>
    </g>
    <g id="dirigibleBackTail">
      <animateTransform 
        attributeName="transform" 
        type="translate" 
        values="0 0; 0 2; 0 0; 0 -2; 0 0" 
        dur="2s" 
        begin="balloonAnimation.begin"  
        repeatCount="indefinite" 
      />
      <path d="M123.23,173.34h9.16a3.29,3.29,0,0,1,3.29,3.3v5.71a3.29,3.29,0,0,1-3.29,3.3H115.57a1.32,1.32,0,0,1-1.32-1.32v-2a9,9,0,0,1,9-9" fill="#068e4d"/>
      <path d="M123.23,173.34h9.16a3.29,3.29,0,0,1,3.29,3.3v5.71a3.29,3.29,0,0,1-3.29,3.3H115.57a1.32,1.32,0,0,1-1.32-1.32v-2A9,9,0,0,1,123.23,173.34Z" fill="none" stroke="#fff" stroke-linecap="round" stroke-linejoin="round" stroke-width="2"/>
      <path d="M123.23,207.39h9.16a3.29,3.29,0,0,0,3.29-3.3v-5.71a3.29,3.29,0,0,0-3.29-3.3H115.57a1.32,1.32,0,0,0-1.32,1.32v2a9,9,0,0,0,9,9" fill="#068e4d"/>
      <path d="M123.23,207.39h9.16a3.29,3.29,0,0,0,3.29-3.3v-5.71a3.29,3.29,0,0,0-3.29-3.3H115.57a1.32,1.32,0,0,0-1.32,1.32v2A9,9,0,0,0,123.23,207.39Z" fill="none" stroke="#fff" stroke-linecap="round" stroke-linejoin="round" stroke-width="2"/>
    </g>
    <g id="dirigibleBalloon">
      <path d="M205,227.08c43.38,0,74.86-15.55,74.86-37s-31.48-37-74.86-37c-27.94,0-55.36,13.53-73.46,24.87a14.3,14.3,0,0,0,0,24.21c18.09,11.33,45.52,24.87,73.46,24.87" fill="#068e4d"/>
      <path d="M205,227.08c43.38,0,74.86-15.55,74.86-37s-31.48-37-74.86-37c-27.94,0-55.36,13.53-73.46,24.87a14.3,14.3,0,0,0,0,24.21C149.63,213.54,177.06,227.08,205,227.08Z" fill="none" stroke="#fff" stroke-width="2"/>
      <path d="M205,176.09c-28.23,0-56.07,5.76-72.81,10-3.95,1-6,2.66-6.08,4.34A12.93,12.93,0,0,1,132.18,179c16.74-10.5,44.58-24.68,72.81-24.68,44.81,0,73.64,16,73.64,35.75,0,0.12,0,.24,0,0.37-0.37-7.95-29.1-14.37-73.63-14.37" fill="#36e69a"/>
      <path d="M132.18,195.12c16.74,4.27,44.58,10,72.81,10,44.14,0,72.75-6.32,73.6-14.18-0.86,19.34-29.45,34.86-73.6,34.86-28.23,0-56.07-14.19-72.81-24.68a12.88,12.88,0,0,1-6-10.18c0.26,1.61,2.26,3.18,6,4.14" fill="#068e4d"/>
      <path d="M132.18,186.12c16.74-4.27,44.58-10,72.81-10,44.53,0,73.26,6.43,73.61,14.38,0,0.17,0,.34,0,0.51-0.85,7.86-29.45,14.17-73.6,14.17-28.23,0-56.07-5.76-72.81-10-3.79-1-5.79-2.53-6-4.13l0-.51c0.13-1.69,2.15-3.36,6.1-4.37" fill="#25b774">
        <animate 
          id="balloonAnimation" 
          attributeName="d"
          values="M132.180000,186.120000C148.920000,181.850000,176.760000,176.120000,204.990000,176.120000C249.520000,176.120000,278.250000,182.550000,278.600000,190.500000C278.600000,190.670000,278.600000,190.840000,278.600000,191.010000C277.750000,198.870000,249.150000,205.180000,205,205.180000C176.770000,205.180000,148.930000,199.420000,132.190000,195.180000C128.400000,194.180000,126.400000,192.650000,126.190000,191.050000L126.190000,190.540000C126.320000,188.850000,128.340000,187.180000,132.290000,186.170000; M132.180000,183.450426C148.920000,179.134688,176.760000,173.343311,204.990000,173.343311C249.520000,173.343311,278.250000,179.842186,278.600000,187.877343C278.600000,188.049164,278.600000,188.220985,278.600000,188.392806C277.750000,196.336998,249.150000,202.714588,205,202.714588C176.770000,202.714588,148.930000,196.892890,132.190000,192.607473C128.400000,191.596761,126.400000,190.050373,126.190000,188.433234L126.190000,187.917771C126.320000,186.209669,128.340000,184.521780,132.290000,183.500962; M132.180000,186.120000C148.920000,181.850000,176.760000,176.120000,204.990000,176.120000C249.520000,176.120000,278.250000,182.550000,278.600000,190.500000C278.600000,190.670000,278.600000,190.840000,278.600000,191.010000C277.750000,198.870000,249.150000,205.180000,205,205.180000C176.770000,205.180000,148.930000,199.420000,132.190000,195.180000C128.400000,194.180000,126.400000,192.650000,126.190000,191.050000L126.190000,190.540000C126.320000,188.850000,128.340000,187.180000,132.290000,186.170000; M132.180000,186.604624C148.920000,182.067566,176.760000,175.979195,204.990000,175.979195C249.520000,175.979195,278.250000,182.811346,278.600000,191.258562C278.600000,191.439194,278.600000,191.619826,278.600000,191.800458C277.750000,200.152045,249.150000,206.856691,205,206.856691C176.770000,206.856691,148.930000,200.736444,132.190000,196.231262C128.400000,195.168719,126.400000,193.543029,126.190000,191.842960L126.190000,191.301063C126.320000,189.505366,128.340000,187.730919,132.290000,186.657751; M132.180000,186.120000C148.920000,181.850000,176.760000,176.120000,204.990000,176.120000C249.520000,176.120000,278.250000,182.550000,278.600000,190.500000C278.600000,190.670000,278.600000,190.840000,278.600000,191.010000C277.750000,198.870000,249.150000,205.180000,205,205.180000C176.770000,205.180000,148.930000,199.420000,132.190000,195.180000C128.400000,194.180000,126.400000,192.650000,126.190000,191.050000L126.190000,190.540000C126.320000,188.850000,128.340000,187.180000,132.290000,186.170000"
          dur="2s" 
          repeatCount="indefinite" 
        />
      </path>
    </g>
    <g id="dirigibleFrontTail">
      <animateTransform 
        attributeName="transform" 
        type="translate" 
        values="0 0; 0 -2; 0 0; 0 2; 0 0" 
        dur="2s" 
        begin="balloonAnimation.begin" 
        repeatCount="indefinite"
      />
      <path d="M123.23,173.34h9.16a3.29,3.29,0,0,1,3.29,3.3v5.71a3.29,3.29,0,0,1-3.29,3.3H115.57a1.32,1.32,0,0,1-1.32-1.32v-2a9,9,0,0,1,9-9" fill="#068e4d"/>
      <path d="M123.23,173.34h9.16a3.29,3.29,0,0,1,3.29,3.3v5.71a3.29,3.29,0,0,1-3.29,3.3H115.57a1.32,1.32,0,0,1-1.32-1.32v-2A9,9,0,0,1,123.23,173.34Z" fill="none" stroke="#fff" stroke-linecap="round" stroke-linejoin="round" stroke-width="2"/>
      <path d="M123.23,207.39h9.16a3.29,3.29,0,0,0,3.29-3.3v-5.71a3.29,3.29,0,0,0-3.29-3.3H115.57a1.32,1.32,0,0,0-1.32,1.32v2a9,9,0,0,0,9,9" fill="#068e4d"/>
      <path d="M123.23,207.39h9.16a3.29,3.29,0,0,0,3.29-3.3v-5.71a3.29,3.29,0,0,0-3.29-3.3H115.57a1.32,1.32,0,0,0-1.32,1.32v2A9,9,0,0,0,123.23,207.39Z" fill="none" stroke="#fff" stroke-linecap="round" stroke-linejoin="round" stroke-width="2"/>
    </g>
  </g>

  <g id="cloud1" opacity="0">
    <animate 
      attributeType="CSS" 
      attributeName="opacity" 
      begin="balloonAnimation.begin"  
      dur="0.5s" 
      from="0" 
      to="1" 
      fill="freeze"
    />
    <animate 
      attributeType="CSS" 
      attributeName="opacity" 
      begin="balloonAnimation.begin+2s"  
      dur="0.5s" 
      from="1" 
      to="0" 
      fill="freeze" 
    />
    <line x1="68.95" y1="107.8" x2="131.86" y2="107.8" fill="none" stroke="#fff" stroke-linecap="round" stroke-miterlimit="10" stroke-width="2"> 
      <animateTransform 
        attributeName="transform" 
        type="translate" 
        from="320" 
        to="0" 
        begin="balloonAnimation.begin" 
        dur="2.5s"  
      />
    </line>
    <path d="M41.77,97.54H77.06a12.4,12.4,0,1,1,24.8,0h17.93" fill="none" stroke="#fff" stroke-linecap="round" stroke-miterlimit="10" stroke-width="2">
      <animateTransform 
        attributeName="transform" 
        type="translate" 
        from="320" 
        to="0" 
        begin="balloonAnimation.begin" 
        dur="2.4s" 
      />
    </path>
  </g>

  <g id="cloud2" opacity="0">
      <animate 
        attributeType="CSS" 
        attributeName="opacity" 
        begin="balloonAnimation.begin+2.5s"  
        dur="0.5s" 
        from="0" 
        to="1" 
        fill="freeze"
      />
      <animate 
        attributeType="CSS" 
        attributeName="opacity" 
        begin="balloonAnimation.begin+4.5s"  
        dur="0.5s" 
        from="1" 
        to="0" 
        fill="freeze" 
      />
    <line x1="258.96" y1="93.19" x2="298.74" y2="93.19" fill="none" stroke="#fff" stroke-linecap="round" stroke-miterlimit="10" stroke-width="2">
      <animateTransform 
        attributeName="transform" 
        type="translate" 
        from="30" 
        to="-200" 
        begin="balloonAnimation.begin+2.5s" 
        dur="2.5s"  
      />
    </line>
    <g>
      <animateTransform 
        attributeName="transform" 
        type="translate" 
        from="30" 
        to="-220" 
        begin="balloonAnimation.begin+2.5s" 
        dur="2.5s" 
      />
      <path d="M278.75,82.91H251.39a12.4,12.4,0,1,0-24.8,0H208.65" fill="none" stroke="#fff" stroke-linecap="round" stroke-miterlimit="10" stroke-width="2"/>
      <line x1="287.01" y1="82.91" x2="309.21" y2="82.91" fill="none" stroke="#fff" stroke-linecap="round" stroke-miterlimit="10" stroke-width="2"/>
    </g>
  </g>

  <g id="dirigibleWind">
    <line x1="106.25" y1="179.49" x2="84.05" y2="179.49" fill="none" stroke="#fff" stroke-linecap="round" stroke-miterlimit="10" stroke-width="2">
      <animate 
        attributeType="XML" 
        attributeName="x2" 
        values="86; 84; 86" 
        dur="0.2s" 
        repeatCount="indefinite" 
        fill="freeze"
      />
    </line>
    <line x1="106.25" y1="201.23" x2="84.05" y2="201.23" fill="none" stroke="#fff" stroke-linecap="round" stroke-miterlimit="10" stroke-width="2">
      <animate 
        attributeType="XML" 
        attributeName="x2" 
        values="90; 84; 90" 
        dur="0.4s" 
        repeatCount="indefinite" 
        fill="freeze" 
      />
    </line>
    <line x1="106.25" y1="190.98" x2="68.77" y2="190.98" fill="none" stroke="#fff" stroke-linecap="round" stroke-miterlimit="10" stroke-width="2">
      <animate 
        attributetype="XML" 
        attributeName="x2" 
        values="74; 66; 76" 
        dur="0.3s" 
        repeatCount="indefinite" 
        fill="freeze" 
      />
    </line>
  </g>

  <g id="mount">
    <path d="M289.94,327.88H244.88L212.8,296.58a1.89,1.89,0,0,0-2.44,0l-10.2,10.23a1.72,1.72,0,0,1-2.25,0l-19-20.17a2.4,2.4,0,0,0-3.1,0l-26.42,25.64a1.71,1.71,0,0,1-2.25,0l-2.63-2.92a1.71,1.71,0,0,0-2.31,0L124.63,329H80.78" fill="none" stroke="#fff" stroke-linecap="round" stroke-miterlimit="10" stroke-width="2">
      <animate
        attributeName="d"
        begin="2s"
        values="M 289.94 327.88 L 244.88 327.88 L 212.8 296.58 C 212.459 296.292 212.027 296.134 211.58 296.134 C 211.133 296.134 210.701 296.292 210.36 296.58 L 200.16 306.81 C 199.847 307.08 199.448 307.229 199.035 307.229 C 198.622 307.229 198.223 307.08 197.91 306.81 L 178.91 286.64 C 178.477 286.273 177.928 286.072 177.36 286.072 C 176.792 286.072 176.243 286.273 175.81 286.64 L 149.39 312.28 C 149.078 312.552 148.679 312.702 148.265 312.702 C 147.851 312.702 147.452 312.552 147.14 312.28 L 144.51 309.36 C 144.195 309.071 143.783 308.911 143.355 308.911 C 142.927 308.911 142.515 309.071 142.2 309.36 L 124.63 329 L 80.78 329; M 289.94 327.88 L 244.88 327.88 L 216.5 312.5 C 216.5 312.5 212.027 310.133 211.58 310.133 C 211.175 310.133 209 311 209 311 L 203.5 313 C 203.5 313 202 313.5 199.035 314.229 C 196 313.5 194.5 312.5 194.5 312.5 L 183.5 306.5 C 183.067 306.133 178.999 304.136 177.36 304.072 C 175.5 304 171.433 305.633 171 306 L 161.5 313 C 161.5 313 158 316 155.265 316.702 C 153.5 316.5 152.5 316 152.5 316 L 150 315.5 C 150 315.5 148.5 315 147 315.5 C 145.5 316 144.786 316.702 144.786 316.702 L 124.5 327.88 L 80.78 328; M 289.94 327.88 L 244.88 327.88 L 217 327.88 C 215.667 327.88 214.333 327.88 213 327.88 C 211.833 327.88 210.667 327.88 209.5 327.88 L 202.5 327.88 C 201 327.88 199.5 327.88 198 327.88 C 196.5 327.88 195 327.88 193.5 327.88 L 183 327.88 C 181 327.88 179 327.88 177 327.88 C 174.333 327.88 171.667 327.88 169 327.88 L 161.5 327.88 C 159.167 327.88 156.833 327.88 154.5 327.88 C 153.667 327.88 152.833 327.88 152 327.88 L 149 327.88 C 148 327.88 147 327.88 146 327.88 C 145.167 327.88 144.333 327.88 143.5 327.88 L 124.5 327.88 L 80.78 328"
        dur="0.5s"
        fill="freeze"
      />
    </path>
    <path d="M289.94,328H200.15c-0.86,0-1.56,0-2.25,0h-19c-1.5,0-2.23,0-3.1,0h-32.3c-1.09,0-1.66,0-2.31,0H80.78" fill="none" stroke="#fff" stroke-linecap="round" stroke-miterlimit="10" stroke-width="2"/>
  </g>
</svg>
