<svg xmlns="http://www.w3.org/2000/svg" xmlns:xlink="http://www.w3.org/1999/xlink" viewBox="0 0 350 330">
  <g id="dirigible">
    <animate
      id="dirigibleAnimation" 
      attributeType="CSS" 
      attributeName="opacity" 
      dur="0.5s" 
      begin="balloonAnimation.begin+3s" 
      from="1" 
      to="0" 
      fill="freeze" 
    />
    <g id="dirigibleGondola">
      <animateTransform 
        attributeName="transform" 
        type="skewY" 
        values="0;1;0;-1;0" 
        dur="2s" 
        repeatCount="indefinite" 
      />
      <path d="M175.44,249.28h48.36a13.27,13.27,0,0,0,13-10.65l3.74-18.32H172.36v25.89A3.09,3.09,0,0,0,175.44,249.28Z" fill="none" stroke="#fff" stroke-linecap="round" stroke-linejoin="round" stroke-width="2"/>
      <path d="M235.79,241.69h-9.22a8.31,8.31,0,0,1-8.28-8.31V220.31" fill="none" stroke="#fff" stroke-linecap="round" stroke-miterlimit="10" stroke-width="2"/>
      <path d="M204.25,231.88h-2.05a3.45,3.45,0,0,0-3.43,3.45v2.92a3.45,3.45,0,0,0,3.43,3.45h2.05a3.45,3.45,0,0,0,3.43-3.45v-2.92A3.44,3.44,0,0,0,204.25,231.88Z" fill="none" stroke="#fff" stroke-linecap="round" stroke-linejoin="round" stroke-width="2">
        <animate
          attributeType="CSS"
          attributeName="opacity"
          begin="dirigibleAnimation.end-1s"
          dur="0.01s"
          from="1"
          to="0"
          fill="freeze"
        />
      </path>
      <path d="M185.64,231.88h-2.05a3.45,3.45,0,0,0-3.43,3.45v2.92a3.45,3.45,0,0,0,3.43,3.45h2.05a3.45,3.45,0,0,0,3.43-3.45v-2.92A3.45,3.45,0,0,0,185.64,231.88Z" fill="none" stroke="#fff" stroke-linecap="round" stroke-linejoin="round" stroke-width="2"/>
    </g>
    <g id="dirigibleBackTail">
      <animateTransform 
        attributeName="transform" 
        type="translate" 
        values="0 0; 0 2; 0 0; 0 -2; 0 0" 
        dur="2s" 
        begin="balloonAnimation.begin"  
        repeatCount="indefinite" 
      />
      <path d="M123.23,173.34h9.16a3.29,3.29,0,0,1,3.29,3.3v5.71a3.29,3.29,0,0,1-3.29,3.3H115.57a1.32,1.32,0,0,1-1.32-1.32v-2a9,9,0,0,1,9-9" fill="#068e4d"/>
      <path d="M123.23,173.34h9.16a3.29,3.29,0,0,1,3.29,3.3v5.71a3.29,3.29,0,0,1-3.29,3.3H115.57a1.32,1.32,0,0,1-1.32-1.32v-2A9,9,0,0,1,123.23,173.34Z" fill="none" stroke="#fff" stroke-linecap="round" stroke-linejoin="round" stroke-width="2"/>
      <path d="M123.23,207.39h9.16a3.29,3.29,0,0,0,3.29-3.3v-5.71a3.29,3.29,0,0,0-3.29-3.3H115.57a1.32,1.32,0,0,0-1.32,1.32v2a9,9,0,0,0,9,9" fill="#068e4d"/>
      <path d="M123.23,207.39h9.16a3.29,3.29,0,0,0,3.29-3.3v-5.71a3.29,3.29,0,0,0-3.29-3.3H115.57a1.32,1.32,0,0,0-1.32,1.32v2A9,9,0,0,0,123.23,207.39Z" fill="none" stroke="#fff" stroke-linecap="round" stroke-linejoin="round" stroke-width="2"/>
    </g>
    <g id="dirigibleBalloon">
      <path d="M205,227.08c43.38,0,74.86-15.55,74.86-37s-31.48-37-74.86-37c-27.94,0-55.36,13.53-73.46,24.87a14.3,14.3,0,0,0,0,24.21c18.09,11.33,45.52,24.87,73.46,24.87" fill="#068e4d"/>
      <path d="M205,227.08c43.38,0,74.86-15.55,74.86-37s-31.48-37-74.86-37c-27.94,0-55.36,13.53-73.46,24.87a14.3,14.3,0,0,0,0,24.21C149.63,213.54,177.06,227.08,205,227.08Z" fill="none" stroke="#fff" stroke-width="2"/>
      <path d="M205,176.09c-28.23,0-56.07,5.76-72.81,10-3.95,1-6,2.66-6.08,4.34A12.93,12.93,0,0,1,132.18,179c16.74-10.5,44.58-24.68,72.81-24.68,44.81,0,73.64,16,73.64,35.75,0,0.12,0,.24,0,0.37-0.37-7.95-29.1-14.37-73.63-14.37" fill="#36e69a"/>
      <path d="M132.18,195.12c16.74,4.27,44.58,10,72.81,10,44.14,0,72.75-6.32,73.6-14.18-0.86,19.34-29.45,34.86-73.6,34.86-28.23,0-56.07-14.19-72.81-24.68a12.88,12.88,0,0,1-6-10.18c0.26,1.61,2.26,3.18,6,4.14" fill="#068e4d"/>
      <path d="M132.18,186.12c16.74-4.27,44.58-10,72.81-10,44.53,0,73.26,6.43,73.61,14.38,0,0.17,0,.34,0,0.51-0.85,7.86-29.45,14.17-73.6,14.17-28.23,0-56.07-5.76-72.81-10-3.79-1-5.79-2.53-6-4.13l0-.51c0.13-1.69,2.15-3.36,6.1-4.37" fill="#25b774">
        <animate 
          id="balloonAnimation" 
          attributeName="d"
          values="M132.180000,186.120000C148.920000,181.850000,176.760000,176.120000,204.990000,176.120000C249.520000,176.120000,278.250000,182.550000,278.600000,190.500000C278.600000,190.670000,278.600000,190.840000,278.600000,191.010000C277.750000,198.870000,249.150000,205.180000,205,205.180000C176.770000,205.180000,148.930000,199.420000,132.190000,195.180000C128.400000,194.180000,126.400000,192.650000,126.190000,191.050000L126.190000,190.540000C126.320000,188.850000,128.340000,187.180000,132.290000,186.170000; M132.180000,183.450426C148.920000,179.134688,176.760000,173.343311,204.990000,173.343311C249.520000,173.343311,278.250000,179.842186,278.600000,187.877343C278.600000,188.049164,278.600000,188.220985,278.600000,188.392806C277.750000,196.336998,249.150000,202.714588,205,202.714588C176.770000,202.714588,148.930000,196.892890,132.190000,192.607473C128.400000,191.596761,126.400000,190.050373,126.190000,188.433234L126.190000,187.917771C126.320000,186.209669,128.340000,184.521780,132.290000,183.500962; M132.180000,186.120000C148.920000,181.850000,176.760000,176.120000,204.990000,176.120000C249.520000,176.120000,278.250000,182.550000,278.600000,190.500000C278.600000,190.670000,278.600000,190.840000,278.600000,191.010000C277.750000,198.870000,249.150000,205.180000,205,205.180000C176.770000,205.180000,148.930000,199.420000,132.190000,195.180000C128.400000,194.180000,126.400000,192.650000,126.190000,191.050000L126.190000,190.540000C126.320000,188.850000,128.340000,187.180000,132.290000,186.170000; M132.180000,186.604624C148.920000,182.067566,176.760000,175.979195,204.990000,175.979195C249.520000,175.979195,278.250000,182.811346,278.600000,191.258562C278.600000,191.439194,278.600000,191.619826,278.600000,191.800458C277.750000,200.152045,249.150000,206.856691,205,206.856691C176.770000,206.856691,148.930000,200.736444,132.190000,196.231262C128.400000,195.168719,126.400000,193.543029,126.190000,191.842960L126.190000,191.301063C126.320000,189.505366,128.340000,187.730919,132.290000,186.657751; M132.180000,186.120000C148.920000,181.850000,176.760000,176.120000,204.990000,176.120000C249.520000,176.120000,278.250000,182.550000,278.600000,190.500000C278.600000,190.670000,278.600000,190.840000,278.600000,191.010000C277.750000,198.870000,249.150000,205.180000,205,205.180000C176.770000,205.180000,148.930000,199.420000,132.190000,195.180000C128.400000,194.180000,126.400000,192.650000,126.190000,191.050000L126.190000,190.540000C126.320000,188.850000,128.340000,187.180000,132.290000,186.170000"
          dur="2s" 
          repeatCount="indefinite" 
        />
      </path>
    </g>
    <g id="dirigibleFrontTail">
      <animateTransform 
        attributeName="transform" 
        type="translate" 
        values="0 0; 0 -2; 0 0; 0 2; 0 0" 
        dur="2s" 
        begin="balloonAnimation.begin" 
        repeatCount="indefinite"
      />
      <path d="M123.23,173.34h9.16a3.29,3.29,0,0,1,3.29,3.3v5.71a3.29,3.29,0,0,1-3.29,3.3H115.57a1.32,1.32,0,0,1-1.32-1.32v-2a9,9,0,0,1,9-9" fill="#068e4d"/>
      <path d="M123.23,173.34h9.16a3.29,3.29,0,0,1,3.29,3.3v5.71a3.29,3.29,0,0,1-3.29,3.3H115.57a1.32,1.32,0,0,1-1.32-1.32v-2A9,9,0,0,1,123.23,173.34Z" fill="none" stroke="#fff" stroke-linecap="round" stroke-linejoin="round" stroke-width="2"/>
      <path d="M123.23,207.39h9.16a3.29,3.29,0,0,0,3.29-3.3v-5.71a3.29,3.29,0,0,0-3.29-3.3H115.57a1.32,1.32,0,0,0-1.32,1.32v2a9,9,0,0,0,9,9" fill="#068e4d"/>
      <path d="M123.23,207.39h9.16a3.29,3.29,0,0,0,3.29-3.3v-5.71a3.29,3.29,0,0,0-3.29-3.3H115.57a1.32,1.32,0,0,0-1.32,1.32v2A9,9,0,0,0,123.23,207.39Z" fill="none" stroke="#fff" stroke-linecap="round" stroke-linejoin="round" stroke-width="2"/>
    </g>
  </g>

  <g id="cloud1" opacity="0">
    <animate 
      attributeType="CSS" 
      attributeName="opacity" 
      begin="balloonAnimation.begin"  
      dur="0.5s" 
      from="0" 
      to="1" 
      fill="freeze"
    />
    <animate 
      attributeType="CSS" 
      attributeName="opacity" 
      begin="balloonAnimation.begin+1s"  
      dur="0.5s" 
      from="1" 
      to="0" 
      fill="freeze" 
    />
    <line x1="68.95" y1="107.8" x2="131.86" y2="107.8" fill="none" stroke="#fff" stroke-linecap="round" stroke-miterlimit="10" stroke-width="2"> 
      <animateTransform 
        attributeName="transform" 
        type="translate" 
        from="320" 
        to="0" 
        begin="balloonAnimation.begin" 
        dur="1.5s"  
      />
    </line>
    <path d="M41.77,97.54H77.06a12.4,12.4,0,1,1,24.8,0h17.93" fill="none" stroke="#fff" stroke-linecap="round" stroke-miterlimit="10" stroke-width="2">
      <animateTransform 
        attributeName="transform" 
        type="translate" 
        from="320" 
        to="0" 
        begin="balloonAnimation.begin" 
        dur="1.4s" 
      />
    </path>
  </g>

  <g id="cloud2" opacity="0">
      <animate 
        attributeType="CSS" 
        attributeName="opacity" 
        begin="balloonAnimation.begin+1.5s"  
        dur="0.5s" 
        from="0" 
        to="1" 
        fill="freeze"
      />
      <animate 
        attributeType="CSS" 
        attributeName="opacity" 
        begin="balloonAnimation.begin+3s"  
        dur="0.5s" 
        from="1" 
        to="0" 
        fill="freeze" 
      />
    <line x1="258.96" y1="93.19" x2="298.74" y2="93.19" fill="none" stroke="#fff" stroke-linecap="round" stroke-miterlimit="10" stroke-width="2">
      <animateTransform 
        attributeName="transform" 
        type="translate" 
        from="30" 
        to="-200" 
        begin="balloonAnimation.begin+1.5s" 
        dur="1.5s"  
      />
    </line>
    <g>
      <animateTransform 
        attributeName="transform" 
        type="translate" 
        from="30" 
        to="-220" 
        begin="balloonAnimation.begin+1.5s" 
        dur="1.5s" 
      />
      <path d="M278.75,82.91H251.39a12.4,12.4,0,1,0-24.8,0H208.65" fill="none" stroke="#fff" stroke-linecap="round" stroke-miterlimit="10" stroke-width="2"/>
      <line x1="287.01" y1="82.91" x2="309.21" y2="82.91" fill="none" stroke="#fff" stroke-linecap="round" stroke-miterlimit="10" stroke-width="2"/>
    </g>
  </g>

  <g id="dirigibleWind">
    <animate 
      attributeType="CSS" 
      attributeName="opacity" 
      begin="balloonAnimation.begin+2.5s"  
      dur="0.5s" 
      from="1" 
      to="0" 
      fill="freeze" 
    />
    <line x1="106.25" y1="179.49" x2="84.05" y2="179.49" fill="none" stroke="#fff" stroke-linecap="round" stroke-miterlimit="10" stroke-width="2">
      <animate 
        attributeType="XML" 
        attributeName="x2" 
        values="86; 84; 86" 
        dur="0.2s" 
        repeatCount="indefinite" 
        fill="freeze"
      />
    </line>
    <line x1="106.25" y1="201.23" x2="84.05" y2="201.23" fill="none" stroke="#fff" stroke-linecap="round" stroke-miterlimit="10" stroke-width="2">
      <animate 
        attributeType="XML" 
        attributeName="x2" 
        values="90; 84; 90" 
        dur="0.4s" 
        repeatCount="indefinite" 
        fill="freeze" 
      />
    </line>
    <line x1="106.25" y1="190.98" x2="68.77" y2="190.98" fill="none" stroke="#fff" stroke-linecap="round" stroke-miterlimit="10" stroke-width="2">
      <animate 
        attributetype="XML" 
        attributeName="x2" 
        values="74; 66; 76" 
        dur="0.3s" 
        repeatCount="indefinite" 
        fill="freeze" 
      />
    </line>
  </g>

  <g id="mount">
    <path d="M289.94,327.88H244.88L212.8,296.58a1.89,1.89,0,0,0-2.44,0l-10.2,10.23a1.72,1.72,0,0,1-2.25,0l-19-20.17a2.4,2.4,0,0,0-3.1,0l-26.42,25.64a1.71,1.71,0,0,1-2.25,0l-2.63-2.92a1.71,1.71,0,0,0-2.31,0L124.63,329H80.78" fill="none" stroke="#fff" stroke-linecap="round" stroke-miterlimit="10" stroke-width="2">
      <animate
        attributeName="d"
        begin="2.5s"
        values="M 289.94 327.88 L 244.88 327.88 L 212.8 296.58 C 212.459 296.292 212.027 296.134 211.58 296.134 C 211.133 296.134 210.701 296.292 210.36 296.58 L 200.16 306.81 C 199.847 307.08 199.448 307.229 199.035 307.229 C 198.622 307.229 198.223 307.08 197.91 306.81 L 178.91 286.64 C 178.477 286.273 177.928 286.072 177.36 286.072 C 176.792 286.072 176.243 286.273 175.81 286.64 L 149.39 312.28 C 149.078 312.552 148.679 312.702 148.265 312.702 C 147.851 312.702 147.452 312.552 147.14 312.28 L 144.51 309.36 C 144.195 309.071 143.783 308.911 143.355 308.911 C 142.927 308.911 142.515 309.071 142.2 309.36 L 124.63 329 L 80.78 329; M 289.94 327.88 L 244.88 327.88 L 216.5 312.5 C 216.5 312.5 212.027 310.133 211.58 310.133 C 211.175 310.133 209 311 209 311 L 203.5 313 C 203.5 313 202 313.5 199.035 314.229 C 196 313.5 194.5 312.5 194.5 312.5 L 183.5 306.5 C 183.067 306.133 178.999 304.136 177.36 304.072 C 175.5 304 171.433 305.633 171 306 L 161.5 313 C 161.5 313 158 316 155.265 316.702 C 153.5 316.5 152.5 316 152.5 316 L 150 315.5 C 150 315.5 148.5 315 147 315.5 C 145.5 316 144.786 316.702 144.786 316.702 L 124.5 327.88 L 80.78 328; M 289.94 327.88 L 244.88 327.88 L 217 327.88 C 215.667 327.88 214.333 327.88 213 327.88 C 211.833 327.88 210.667 327.88 209.5 327.88 L 202.5 327.88 C 201 327.88 199.5 327.88 198 327.88 C 196.5 327.88 195 327.88 193.5 327.88 L 183 327.88 C 181 327.88 179 327.88 177 327.88 C 174.333 327.88 171.667 327.88 169 327.88 L 161.5 327.88 C 159.167 327.88 156.833 327.88 154.5 327.88 C 153.667 327.88 152.833 327.88 152 327.88 L 149 327.88 C 148 327.88 147 327.88 146 327.88 C 145.167 327.88 144.333 327.88 143.5 327.88 L 124.5 327.88 L 80.78 328"
        dur="0.5s"
        fill="freeze"
      />
    </path>
    <path d="M289.94,328H200.15c-0.86,0-1.56,0-2.25,0h-19c-1.5,0-2.23,0-3.1,0h-32.3c-1.09,0-1.66,0-2.31,0H80.78" fill="none" stroke="#fff" stroke-linecap="round" stroke-miterlimit="10" stroke-width="2"/>
  </g>

  <g id="fromDirigibleToWindow" opacity="0">
    <animate
      attributeType="CSS"
      attributeName="opacity"
      begin="dirigibleAnimation.end-1s"
      dur="10ms"
      from="0"
      to="1"
      fill="freeze"
    />
    <path d="M275,225.43H257.87a17.6,17.6,0,0,1-17.52-17.58V170a17.6,17.6,0,0,1,17.52-17.58H275A17.6,17.6,0,0,1,292.51,170v37.83A17.61,17.61,0,0,1,275,225.43Z" fill="none" stroke="#fff" stroke-width="2">
      <animate
        attributeName="d"
        begin="dirigibleAnimation.end-1s"
        values="
          M204.979 241.9H202.023C201.221 241.897 200.452 241.644 199.886 241.198C199.319 240.751 199.001 240.146 199 239.516V234.384C199.001 233.753 199.319 233.148 199.886 232.702C200.452 232.255 201.221 232.003 202.023 232H204.979C205.781 232.003 206.549 232.256 207.115 232.702C207.681 233.149 207.999 233.753 208 234.384V239.513C208 240.144 207.682 240.749 207.116 241.196C206.549 241.643 205.781 241.896 204.979 241.9V241.9Z;
          M275 225.43H257.87C253.22 225.409 248.766 223.548 245.484 220.254C242.201 216.96 240.355 212.501 240.35 207.85V170C240.355 165.349 242.201 160.89 245.484 157.596C248.766 154.302 253.22 152.441 257.87 152.42H275C279.649 152.444 284.099 154.306 287.38 157.6C290.661 160.893 292.505 165.351 292.51 170V207.83C292.507 212.481 290.665 216.943 287.384 220.24C284.103 223.538 279.651 225.404 275 225.43V225.43Z
        "
        fill="freeze"
        dur="0.5"
      />
    </path>
  </g>

  <g opacity="0">
    <animate 
      id="windowAnimation" 
      attributeType="CSS" 
      attributeName="opacity" 
      dur="0.5s" 
      begin="dirigibleAnimation.end-0.5s" 
      from="0" 
      to="1" 
      fill="freeze" 
    />
    <defs>
      <clipPath id="window">
        <path d="M275,225.43H257.87a17.6,17.6,0,0,1-17.52-17.58V170a17.6,17.6,0,0,1,17.52-17.58H275A17.6,17.6,0,0,1,292.51,170v37.83A17.61,17.61,0,0,1,275,225.43Z"/>
      </clipPath>
    </defs>    
    <g id="skiing" opacity="0">
      <animate
        attributeName="opacity"
        attributeType="CSS"
        to="1"
        dur="1s"
        accumulate="sum"
        fill="freeze" 
        begin="dirigibleAnimation.end - 1.1s"
      />
      <animateTransform
        attributeName="transform"
        type="translate"
        from="-300 0"
        to="0 0"
        dur="1"
        begin="dirigibleAnimation.end -1.1s"
      />
      <path d="M91.14,327.79a2.2,2.2,0,0,1-2-2.36l13.66-193.17c1.1-15.49-4.8-21.92-8.75-24.47a1.35,1.35,0,0,1,.53-2.45C103,104,122.18,104,120,134.19L106.43,326.67a2.2,2.2,0,0,1-2.35,2Z" fill="#fff"/>
      <path d="M124.5,328.17a2.2,2.2,0,0,1-2.17-2.23l2.24-193.63c0.19-15.53-6.07-21.61-10.16-23.91a1.35,1.35,0,0,1,.39-2.47c8.36-1.9,27.49-3,27.15,27.28l-2.25,192.93a2.2,2.2,0,0,1-2.22,2.18Z" fill="#fff"/>
    </g>
    <g id="chair" opacity="0">
      <animate
        attributeName="opacity"
        attributeType="CSS"
        to="1"
        dur="1s"
        fill="freeze"
        begin="dirigibleAnimation.end - 1.3s"
      />
      <animateTransform
        attributeName="transform"
        type="translate"
        from="-200 0"
        to="0 0"
        dur="1s"
        begin="dirigibleAnimation.end - 1.3s"
      />
      <path d="M257.5,259.82H196.76V245.63h55.09a9.92,9.92,0,0,1,9.9,9.93,4.26,4.26,0,0,1-4.25,4.25" fill="#a67ee5"/>
      <path d="M257.5,259.82H196.76V245.63h55.09a9.92,9.92,0,0,1,9.9,9.93A4.26,4.26,0,0,1,257.5,259.82Z" fill="none" stroke="#fff" stroke-miterlimit="10" stroke-width="2"/>
      <polygon points="185.47 328.31 171.5 328.31 165.19 286.72 179.16 286.72 185.47 328.31" fill="#a67ee5"/>
      <polygon points="185.47 328.31 171.5 328.31 165.19 286.72 179.16 286.72 185.47 328.31" fill="none" stroke="#fff" stroke-miterlimit="10" stroke-width="2"/>
      <polygon points="235.03 328.31 221.06 328.31 214.76 286.72 228.72 286.72 235.03 328.31" fill="#a67ee5"/>
      <polygon points="235.03 328.31 221.06 328.31 214.76 286.72 228.72 286.72 235.03 328.31" fill="none" stroke="#fff" stroke-miterlimit="10" stroke-width="2"/>
      <path d="M281.33,272.45H225.44a5.59,5.59,0,0,1-5.53-4.77l-10.86-72.24a17.71,17.71,0,0,0-12.49-31.31H141.48L141.16,267l15.77,23.35,47.19,8.39a12.3,12.3,0,0,0,4.22.75h73a13.53,13.53,0,0,0,0-27.06" fill="#a67ee5"/>
      <path d="M281.33,272.45H225.44a5.59,5.59,0,0,1-5.53-4.77l-10.86-72.24a17.71,17.71,0,0,0-12.49-31.31H141.48L141.16,267l15.77,23.35,47.19,8.39a12.3,12.3,0,0,0,4.22.75h73A13.53,13.53,0,0,0,281.33,272.45Z" fill="none" stroke="#fff" stroke-miterlimit="10" stroke-width="2"/>
      <path d="M162.42,267.69l-10.86-72.24a17.71,17.71,0,1,0-29-13.61,18,18,0,0,0,.79,5.25L138.65,289a12.36,12.36,0,0,0,12.21,10.54h73a13.53,13.53,0,0,0,0-27.05H167.95a5.62,5.62,0,0,1-5.53-4.78" fill="#a67ee5"/>
      <path d="M162.42,267.69l-10.86-72.24a17.71,17.71,0,1,0-29-13.61,18,18,0,0,0,.79,5.25L138.65,289a12.36,12.36,0,0,0,12.21,10.54h73a13.53,13.53,0,0,0,0-27.05H167.95A5.62,5.62,0,0,1,162.42,267.69Z" fill="none" stroke="#fff" stroke-miterlimit="10" stroke-width="2"/>
      <path d="M206.26,259.82h-72l-2.13-14.19H200.6a9.92,9.92,0,0,1,9.9,9.93,4.26,4.26,0,0,1-4.25,4.25" fill="#a67ee5"/>
      <path d="M206.26,259.82h-72l-2.13-14.19H200.6a9.92,9.92,0,0,1,9.9,9.93A4.26,4.26,0,0,1,206.26,259.82Z" fill="none" stroke="#fff" stroke-miterlimit="10" stroke-width="2"/>
      <line x1="151.57" y1="195.44" x2="209.05" y2="195.44" fill="none" stroke="#fff" stroke-linecap="round" stroke-miterlimit="10" stroke-width="2"/>
    </g>
    <g id="plant" opacity="0">
      <animate
        attributeName="opacity"
        attributeType="CSS"
        to="1"
        dur="1s"
        fill="freeze"
        begin="dirigibleAnimation.end - 1.1s"
      />
      <animateTransform
        attributeName="transform"
        type="translate"
        from="-240 0"
        to="0 0"
        dur="1s"
        begin="dirigibleAnimation.end - 1.1s"
      />
      <animateTransform
        attributeName="transform"
        type="rotate"
        values="-6.4 149 350; 5 149 350; -2.5 149 350; 1.2 149 350;  0 149 350"
        dur="2.4s"
        additive="sum"
        fill="freeze"
        keySplines="0.33, 0, 0.67, 1; 0.33, 0, 0.67, 1; 0.33, 0, 0.67, 1; 0.33, 0, 0.67, 1"
        calcMode="spline" 
        begin="dirigibleAnimation.end - 0.2s"
      />    
      <path d="M79.18,194A131,131,0,0,1,94.77,220.9a255,255,0,0,1-20.08-23.55,259,259,0,0,1-17.07-25.88A131.72,131.72,0,0,1,79.18,194" fill="#36e69a"/>
      <path d="M80.94,214.39a127.19,127.19,0,0,1,22.8,20.49A242.09,242.09,0,0,1,77.9,219.17a235.86,235.86,0,0,1-23.42-18.7,119.82,119.82,0,0,1,26.46,13.92" fill="#36e69a"/>
      <path d="M93.66,205.48a258.38,258.38,0,0,0,10.08,29.39,125.63,125.63,0,0,0-4.5-30.52,135.9,135.9,0,0,0-12.06-29.44,260.33,260.33,0,0,0,6.47,30.57" fill="#36e69a"/>
      <path d="M107.32,213.52a250.14,250.14,0,0,0,2.06,30.67,119.93,119.93,0,0,0,3.76-30.05,131.24,131.24,0,0,0-4-31.36,238.1,238.1,0,0,0-1.87,30.74" fill="#25b774"/>
      <path d="M83.08,229.56a121.93,121.93,0,0,1,26.29,14.64A225.91,225.91,0,0,1,81.21,235a228.11,228.11,0,0,1-26.37-12.69,113.61,113.61,0,0,1,28.25,7.29" fill="#25b774"/>
      <path d="M88.06,243.83A118.11,118.11,0,0,1,115.62,255a211,211,0,0,1-28.78-5.6,220.87,220.87,0,0,1-27.42-9.33,114,114,0,0,1,28.65,3.73" fill="#25b774"/>
      <path d="M118.71,224.79a238,238,0,0,0-3.1,30.25,117.11,117.11,0,0,0,8.82-28.54,127.44,127.44,0,0,0,1.42-31.19,213.92,213.92,0,0,0-7.15,29.48" fill="#25b774"/>
      <path d="M98.86,262a118.24,118.24,0,0,1,27.07,12.34,212.3,212.3,0,0,1-28.53-6.79,220.78,220.78,0,0,1-27-10.45A114.06,114.06,0,0,1,98.86,262" fill="#068e4d"/>
      <path d="M130.27,244.29a236.56,236.56,0,0,0-4.34,30.1,116.94,116.94,0,0,0,10-28.16,127.42,127.42,0,0,0,2.71-31.1,214.43,214.43,0,0,0-8.36,29.16" fill="#068e4d"/>
      <path d="M108.9,280.69a118.21,118.21,0,0,1,26.54,13.47,213.62,213.62,0,0,1-28.23-8,221.65,221.65,0,0,1-26.55-11.57,113.82,113.82,0,0,1,28.24,6.08" fill="#068e4d"/>
      <path d="M141,264.26a236.09,236.09,0,0,0-5.58,29.9,117.46,117.46,0,0,0,11.15-27.73,127.2,127.2,0,0,0,4-31A214.24,214.24,0,0,0,141,264.26" fill="#068e4d"/>
      <path d="M92.62,217.67A529.26,529.26,0,0,1,149.48,328" fill="none" stroke="#36e69a" stroke-linecap="round" stroke-linejoin="round" stroke-width="2"/>
    </g>
    <g>
      <line x1="72.03" y1="329" x2="295.52" y2="329" fill="none" stroke="#fff" stroke-linecap="round" stroke-miterlimit="10" stroke-width="2"/>
    </g>  
    <g clip-path="url(#window)">
      <g transform="translate(220 160)" id="cloud3" >
        <g opacity="0">
          <animate
            attributeName="opacity"
            values="1; 1; 1; 0"
            keyTimes="0; 0.25; 0.9; 1"
            dur="2s"
            fill="freeze"
            begin="dirigibleAnimation.end - 0.8s"
          />
          <animateMotion
            from="200 0"
            to="-200 0"
            dur="2s"
            fill="freeze"
            begin="dirigibleAnimation.end - 0.8s"
          />
          <line x1="28.18" y1="38.34" x2="91.09" y2="38.34" fill="none" stroke="#fff" stroke-linecap="round" stroke-miterlimit="10" stroke-width="2"/>
          <path d="M41.77,97.54H77.06a12.4,12.4,0,1,1,24.8,0h17.93" transform="translate(-40.77 -69.46)" fill="none" stroke="#fff" stroke-linecap="round" stroke-miterlimit="10" stroke-width="2"/>
          <line x1="218.19" y1="23.72" x2="257.97" y2="23.72" fill="none" stroke="#fff" stroke-linecap="round" stroke-miterlimit="10" stroke-width="2"/>
          <path d="M278.75,82.91H251.39a12.4,12.4,0,1,0-24.8,0H208.65" transform="translate(-40.77 -69.46)" fill="none" stroke="#fff" stroke-linecap="round" stroke-miterlimit="10" stroke-width="2"/>
          <line x1="246.24" y1="13.45" x2="268.43" y2="13.45" fill="none" stroke="#fff" stroke-linecap="round" stroke-miterlimit="10" stroke-width="2"/>
        </g>
      </g>
    </g>
  </g>
</svg>